<?xml version="1.0" encoding="UTF-8" standalone="no"?><svg width="101" height="101" viewBox="0 0 101 101" fill="none" xmlns="http://www.w3.org/2000/svg">
<path d="M78.6154 32.832C78.0431 40.7754 72.1505 46.8945 65.7248 46.8945C59.299 46.8945 53.3966 40.7773 52.8341 32.832C52.2482 24.5684 57.9845 18.7695 65.7248 18.7695C73.465 18.7695 79.2013 24.7187 78.6154 32.832Z" stroke="#2A2C33" stroke-width="6.25" stroke-linecap="round" stroke-linejoin="round"/>
<path d="M65.718 59.3945C52.9895 59.3945 40.7492 65.7168 37.6828 78.0293C37.2766 79.6582 38.2981 81.2695 39.9719 81.2695H91.466C93.1398 81.2695 94.1555 79.6582 93.7551 78.0293C90.6887 65.5195 78.4484 59.3945 65.718 59.3945Z" stroke="#2A2C33" stroke-width="6.25" stroke-miterlimit="10"/>
<path d="M39.1535 36.3359C38.6964 42.6797 33.9347 47.6758 28.8019 47.6758C23.6691 47.6758 18.8996 42.6816 18.4504 36.3359C17.9836 29.7363 22.6183 25.0195 28.8019 25.0195C34.9855 25.0195 39.6203 29.8574 39.1535 36.3359Z" stroke="#2A2C33" stroke-width="6.25" stroke-linecap="round" stroke-linejoin="round"/>
<path d="M40.33 59.7852C36.8046 58.1699 32.9218 57.5488 28.8066 57.5488C18.6503 57.5488 8.86519 62.5977 6.41402 72.4316C6.09175 73.7324 6.90816 75.0195 8.2441 75.0195H30.1738" stroke="#2A2C33" stroke-width="6.25" stroke-miterlimit="10" stroke-linecap="round"/>
</svg>
