<?xml version="1.0" encoding="UTF-8" standalone="no"?><svg width="95" height="95" viewBox="0 0 95 95" fill="none" xmlns="http://www.w3.org/2000/svg">
<path d="M77.1875 50.4688C79.2285 50.4688 81.1458 50.8553 82.9395 51.6284C84.7331 52.4015 86.3102 53.453 87.6709 54.7827C89.0316 56.1125 90.0985 57.6896 90.8716 59.5142C91.6447 61.3387 92.0312 63.2715 92.0312 65.3125C92.0312 66.9206 91.7839 68.4823 91.2891 69.9976C90.7943 71.5129 90.0521 72.9199 89.0625 74.2188V93.8867L77.1875 87.9492L65.3125 93.8867V74.2188C64.3538 72.9199 63.6271 71.5129 63.1323 69.9976C62.6375 68.4823 62.3747 66.9206 62.3438 65.3125C62.3438 63.2715 62.7303 61.3542 63.5034 59.5605C64.2765 57.7669 65.328 56.1898 66.6577 54.8291C67.9875 53.4684 69.5646 52.4015 71.3892 51.6284C73.2137 50.8553 75.1465 50.4688 77.1875 50.4688ZM77.1875 56.4062C75.9505 56.4062 74.7909 56.6382 73.7085 57.1021C72.6261 57.5659 71.6829 58.1999 70.8789 59.0039C70.0749 59.8079 69.4409 60.7511 68.9771 61.8335C68.5132 62.9159 68.2812 64.0755 68.2812 65.3125C68.2812 66.5495 68.5132 67.7091 68.9771 68.7915C69.4409 69.8739 70.0749 70.8171 70.8789 71.6211C71.6829 72.4251 72.6261 73.0591 73.7085 73.5229C74.7909 73.9868 75.9505 74.2188 77.1875 74.2188C78.4245 74.2188 79.5841 73.9868 80.6665 73.5229C81.7489 73.0591 82.6921 72.4251 83.4961 71.6211C84.3001 70.8171 84.9341 69.8739 85.3979 68.7915C85.8618 67.7091 86.0938 66.5495 86.0938 65.3125C86.0938 64.0755 85.8618 62.9159 85.3979 61.8335C84.9341 60.7511 84.3001 59.8079 83.4961 59.0039C82.6921 58.1999 81.7489 57.5659 80.6665 57.1021C79.5841 56.6382 78.4245 56.4062 77.1875 56.4062ZM83.125 84.2383V78.9038C81.2695 79.7388 79.2904 80.1562 77.1875 80.1562C75.0846 80.1562 73.1055 79.7388 71.25 78.9038V84.2383L77.1875 81.2695L83.125 84.2383ZM77.1875 23.75C75.5485 23.75 74.0177 24.0592 72.5952 24.6777C71.1727 25.2962 69.9048 26.1466 68.7915 27.229C67.6782 28.3114 66.8278 29.5638 66.2402 30.9863C65.6527 32.4089 65.3434 33.9551 65.3125 35.625C65.3125 38.4701 64.6785 41.145 63.4106 43.6499C62.1427 46.1548 60.3491 48.2731 58.0298 50.0049C58.6174 50.2832 59.174 50.5924 59.6997 50.9326C60.2254 51.2728 60.7666 51.6284 61.3232 51.9995L57.8442 56.8237C56.3289 55.7414 54.6899 54.9064 52.9272 54.3188C51.1646 53.7313 49.3555 53.4375 47.5 53.4375C45.026 53.4375 42.7222 53.9014 40.5884 54.8291C38.4546 55.7568 36.5682 57.0247 34.9292 58.6328C33.2902 60.2409 32.0068 62.1427 31.0791 64.3384C30.1514 66.534 29.6875 68.8379 29.6875 71.25H23.75C23.75 68.9925 24.0592 66.8123 24.6777 64.7095C25.2962 62.6066 26.1776 60.6274 27.3218 58.772C28.466 56.9165 29.8421 55.2466 31.4502 53.7622C33.0583 52.2778 34.8828 51.0099 36.9238 49.9585C34.6354 48.2576 32.8573 46.1548 31.5894 43.6499C30.3215 41.145 29.6875 38.4701 29.6875 35.625C29.6875 33.986 29.3783 32.4552 28.7598 31.0327C28.1413 29.6102 27.2909 28.3423 26.2085 27.229C25.1261 26.1157 23.8737 25.2653 22.4512 24.6777C21.0286 24.0902 19.4824 23.7809 17.8125 23.75C16.1735 23.75 14.6427 24.0592 13.2202 24.6777C11.7977 25.2962 10.5298 26.1466 9.4165 27.229C8.30322 28.3114 7.4528 29.5638 6.86523 30.9863C6.27767 32.4089 5.96842 33.9551 5.9375 35.625H0C0 34.0169 0.216471 32.4552 0.649414 30.9399C1.08236 29.4246 1.68538 27.9867 2.4585 26.626C3.23161 25.2653 4.19027 24.0283 5.33447 22.915C6.47868 21.8018 7.76204 20.8431 9.18457 20.0391C8.16406 18.9567 7.37549 17.7043 6.81885 16.2817C6.26221 14.8592 5.96842 13.3903 5.9375 11.875C5.9375 10.236 6.24674 8.70524 6.86523 7.28271C7.48372 5.86019 8.33415 4.59229 9.4165 3.479C10.4989 2.36572 11.7513 1.5153 13.1738 0.927734C14.5964 0.340169 16.1426 0.0309245 17.8125 0C19.4515 0 20.9823 0.309245 22.4048 0.927734C23.8273 1.54622 25.0952 2.39665 26.2085 3.479C27.3218 4.56136 28.1722 5.8138 28.7598 7.23633C29.3473 8.65885 29.6566 10.2051 29.6875 11.875C29.6875 13.3903 29.4092 14.8592 28.8525 16.2817C28.2959 17.7043 27.4919 18.9567 26.4404 20.0391C28.9762 21.4307 31.0482 23.348 32.6562 25.791C33.4912 24.554 34.4499 23.4408 35.5322 22.4512C36.6146 21.4616 37.7897 20.6266 39.0576 19.9463C40.3255 19.266 41.6707 18.7402 43.0933 18.3691C44.5158 17.998 45.9847 17.8125 47.5 17.8125C48.9844 17.8125 50.4378 17.998 51.8604 18.3691C53.2829 18.7402 54.6281 19.266 55.896 19.9463C57.1639 20.6266 58.3545 21.4616 59.4678 22.4512C60.5811 23.4408 61.5397 24.554 62.3438 25.791C63.9518 23.348 66.0238 21.4307 68.5596 20.0391C67.5391 18.9567 66.7505 17.7043 66.1938 16.2817C65.6372 14.8592 65.3434 13.3903 65.3125 11.875C65.3125 10.236 65.6217 8.70524 66.2402 7.28271C66.8587 5.86019 67.7091 4.59229 68.7915 3.479C69.8739 2.36572 71.1263 1.5153 72.5488 0.927734C73.9714 0.340169 75.5176 0.0309245 77.1875 0C78.8265 0 80.3573 0.309245 81.7798 0.927734C83.2023 1.54622 84.4702 2.39665 85.5835 3.479C86.6968 4.56136 87.5472 5.8138 88.1348 7.23633C88.7223 8.65885 89.0316 10.2051 89.0625 11.875C89.0625 13.3903 88.7842 14.8592 88.2275 16.2817C87.6709 17.7043 86.8669 18.9567 85.8154 20.0391C87.238 20.8431 88.5059 21.8018 89.6191 22.915C90.7324 24.0283 91.6911 25.2498 92.4951 26.5796C93.2992 27.9093 93.9176 29.3473 94.3506 30.8936C94.7835 32.4398 95 34.0169 95 35.625H89.0625C89.0625 33.986 88.7533 32.4552 88.1348 31.0327C87.5163 29.6102 86.6659 28.3423 85.5835 27.229C84.5011 26.1157 83.2487 25.2653 81.8262 24.6777C80.4036 24.0902 78.8574 23.7809 77.1875 23.75ZM71.25 11.875C71.25 12.71 71.4046 13.4831 71.7139 14.1943C72.0231 14.9056 72.4406 15.5241 72.9663 16.0498C73.492 16.5755 74.126 17.0085 74.8682 17.3486C75.6104 17.6888 76.3835 17.8434 77.1875 17.8125C78.0225 17.8125 78.7956 17.6579 79.5068 17.3486C80.2181 17.0394 80.8366 16.6219 81.3623 16.0962C81.888 15.5705 82.321 14.9365 82.6611 14.1943C83.0013 13.4521 83.1559 12.679 83.125 11.875C83.125 11.04 82.9704 10.2669 82.6611 9.55566C82.3519 8.8444 81.9344 8.22591 81.4087 7.7002C80.883 7.17448 80.249 6.74154 79.5068 6.40137C78.7646 6.0612 77.9915 5.90658 77.1875 5.9375C76.3525 5.9375 75.5794 6.09212 74.8682 6.40137C74.1569 6.71061 73.5384 7.12809 73.0127 7.65381C72.487 8.17952 72.054 8.81348 71.7139 9.55566C71.3737 10.2979 71.2191 11.071 71.25 11.875ZM11.875 11.875C11.875 12.71 12.0296 13.4831 12.3389 14.1943C12.6481 14.9056 13.0656 15.5241 13.5913 16.0498C14.117 16.5755 14.751 17.0085 15.4932 17.3486C16.2354 17.6888 17.0085 17.8434 17.8125 17.8125C18.6475 17.8125 19.4206 17.6579 20.1318 17.3486C20.8431 17.0394 21.4616 16.6219 21.9873 16.0962C22.513 15.5705 22.946 14.9365 23.2861 14.1943C23.6263 13.4521 23.7809 12.679 23.75 11.875C23.75 11.04 23.5954 10.2669 23.2861 9.55566C22.9769 8.8444 22.5594 8.22591 22.0337 7.7002C21.508 7.17448 20.874 6.74154 20.1318 6.40137C19.3896 6.0612 18.6165 5.90658 17.8125 5.9375C16.9775 5.9375 16.2044 6.09212 15.4932 6.40137C14.7819 6.71061 14.1634 7.12809 13.6377 7.65381C13.112 8.17952 12.679 8.81348 12.3389 9.55566C11.9987 10.2979 11.8441 11.071 11.875 11.875ZM35.625 35.625C35.625 37.264 35.9342 38.7948 36.5527 40.2173C37.1712 41.6398 38.0216 42.9077 39.104 44.021C40.1864 45.1343 41.4388 45.9847 42.8613 46.5723C44.2839 47.1598 45.8301 47.4691 47.5 47.5C49.139 47.5 50.6698 47.1908 52.0923 46.5723C53.5148 45.9538 54.7827 45.1034 55.896 44.021C57.0093 42.9386 57.8597 41.6862 58.4473 40.2637C59.0348 38.8411 59.3441 37.2949 59.375 35.625C59.375 33.986 59.0658 32.4552 58.4473 31.0327C57.8288 29.6102 56.9784 28.3423 55.896 27.229C54.8136 26.1157 53.5612 25.2653 52.1387 24.6777C50.7161 24.0902 49.1699 23.7809 47.5 23.75C45.861 23.75 44.3302 24.0592 42.9077 24.6777C41.4852 25.2962 40.2173 26.1466 39.104 27.229C37.9907 28.3114 37.1403 29.5638 36.5527 30.9863C35.9652 32.4089 35.6559 33.9551 35.625 35.625Z" fill="#2A2C33"/>
</svg>
