<?xml version="1.0" encoding="UTF-8" standalone="no"?><svg width="58" height="50" viewBox="0 0 58 50" fill="none" xmlns="http://www.w3.org/2000/svg">
<g clip-path="url(#clip0_445_11003)">
<path d="M37.1432 43.1945V40.1806C37.1432 37.3677 31.4168 36.1621 28.6038 36.1621C25.7908 36.1621 20.0645 37.3677 20.0645 40.1806V43.1945" stroke="#6F6780" stroke-width="2.00926" stroke-miterlimit="10"/>
<path d="M28.6041 33.1482C30.7138 33.1482 32.1203 31.4404 32.1203 29.3306V28.0246C32.1203 25.9149 30.7138 24.207 28.6041 24.207C26.4944 24.207 25.0879 25.9149 25.0879 28.0246V29.3306C25.0879 31.4404 26.4944 33.1482 28.6041 33.1482Z" stroke="#6F6780" stroke-width="2.00926" stroke-miterlimit="10"/>
<path d="M13.5338 35.1569C11.4241 35.1569 10.0176 33.3486 10.0176 31.2388V29.9328C10.0176 27.8231 11.4241 26.1152 13.5338 26.1152C15.6435 26.1152 17.05 27.8231 17.05 30.0333V31.3393C17.05 33.3486 15.6435 35.1569 13.5338 35.1569Z" stroke="#6F6780" stroke-width="2.00926" stroke-miterlimit="10"/>
<path d="M43.6725 35.1558C45.7822 35.1558 47.1887 33.4479 47.1887 31.2377V29.9317C47.1887 27.822 45.7822 26.0137 43.6725 26.0137C41.5627 26.0137 40.1562 27.7215 40.1562 29.9317V31.2377C40.1562 33.3475 41.5627 35.1558 43.6725 35.1558Z" stroke="#6F6780" stroke-width="2.00926" stroke-miterlimit="10"/>
<path d="M50.2027 49.2208V41.1838C50.2027 39.4759 48.8966 38.1699 47.1888 38.1699H44.1749L39.1517 43.1931H33.124C33.124 43.1931 32.7221 47.2116 36.1378 47.2116C38.1471 47.2116 42.1656 47.2116 42.1656 47.2116L46.1841 43.1931" stroke="#6F6780" stroke-width="2.00926" stroke-miterlimit="10"/>
<path d="M7.00391 49.2208V41.1838C7.00391 39.4759 8.30992 38.1699 10.0178 38.1699H13.0317L18.0548 43.1931H24.0826C24.0826 43.1931 24.4845 47.2116 21.0687 47.2116C19.0595 47.2116 15.0409 47.2116 15.0409 47.2116L11.0224 43.1931" stroke="#6F6780" stroke-width="2.00926" stroke-miterlimit="10"/>
<path d="M43.1699 46.207V49.2209" stroke="#6F6780" stroke-width="2.00926" stroke-miterlimit="10"/>
<path d="M14.0371 46.207V49.2209" stroke="#6F6780" stroke-width="2.00926" stroke-miterlimit="10"/>
<path d="M21.0684 47.2129H36.1378" stroke="#6F6780" stroke-width="2.00926" stroke-miterlimit="10"/>
<path d="M16.0464 2.00391H42.1667C43.2718 2.00391 44.176 2.90807 44.176 4.01317V18.078C44.176 19.1831 43.2718 20.0872 42.1667 20.0872H38.1482V24.4071C38.1482 25.3113 36.9427 25.8136 36.3399 25.1104L32.1204 20.0872H16.0464C14.9413 20.0872 14.0371 19.1831 14.0371 18.078V4.01317C14.0371 2.90807 14.9413 2.00391 16.0464 2.00391Z" stroke="#6F6780" stroke-width="2.00926" stroke-miterlimit="10"/>
</g>
<defs>
<clipPath id="clip0_445_11003">
<rect width="45.2083" height="48.2222" fill="white" transform="translate(6 1)"/>
</clipPath>
</defs>
</svg>
