<?xml version="1.0" encoding="UTF-8" standalone="no"?><svg width="58" height="50" viewBox="0 0 58 50" fill="none" xmlns="http://www.w3.org/2000/svg">
<path d="M43.8966 11.4998V4.98298C43.8966 3.44654 42.6397 2.18945 41.1035 2.18945H4.79334C3.25714 2.18945 2.00024 3.44654 2.00024 4.98298V24.5376C2.00024 26.0741 3.25714 27.3312 4.79334 27.3312H10.845" stroke="#6F6780" stroke-width="1.87068" stroke-miterlimit="10"/>
<path d="M8.51758 10.5684H36.4485" stroke="#6F6780" stroke-width="1.86206" stroke-linecap="round"/>
<path d="M8.51758 18.0156H10.3796" stroke="#6F6780" stroke-width="1.86206" stroke-linecap="round"/>
<path d="M16.8969 15.2227H53.207C54.7432 15.2227 56.0001 16.4797 56.0001 18.0162V37.5708C56.0001 39.1073 54.7432 40.3644 53.207 40.3644H47.6209V46.3704C47.6209 47.6275 45.945 48.3259 45.1071 47.3482L39.2416 40.3644H16.8969C15.3607 40.3644 14.1038 39.1073 14.1038 37.5708V18.0162C14.1038 16.4797 15.3607 15.2227 16.8969 15.2227Z" stroke="#6F6780" stroke-width="1.87068" stroke-miterlimit="10"/>
<path d="M22.0176 23.6016H47.6209" stroke="#6F6780" stroke-width="1.86206" stroke-linecap="round"/>
<path d="M22.0176 31.0488H47.6209" stroke="#6F6780" stroke-width="1.86206" stroke-linecap="round"/>
</svg>
