<?xml version="1.0" encoding="UTF-8" standalone="no"?><svg width="58" height="50" viewBox="0 0 58 50" fill="none" xmlns="http://www.w3.org/2000/svg">
<path d="M6 6L27 13V44L6 37V6Z" stroke="#6F6780" stroke-width="2.00926" stroke-miterlimit="10" stroke-linejoin="round"/>
<path d="M10.5 24.0004C12 22.3337 16.8 19.0004 20 23.0004C23.2 27.0004 19.2374 30.7379 22.5 34.0004C27 38.5004 33.5 28.0004 39 31.0004C43.4 33.4004 44.5 32.0004 45 31.0004" stroke="#6F6780" stroke-dasharray="2 2"/>
<path d="M47.6826 5.04769C47.9889 4.9457 48.326 4.99662 48.5879 5.18538C48.817 5.35057 48.9637 5.60387 48.9971 5.88069L49.0049 6.00081V12.076C48.3829 11.7155 47.7087 11.435 46.9951 11.2518V7.39437L28.0049 13.7244V42.6063L46.9951 36.2762V35.0008H47L49.0049 32.661V37.0008C49.0048 37.4332 48.7276 37.8172 48.3174 37.9539L27.3174 44.9539C27.0111 45.0559 26.674 45.0049 26.4121 44.8162C26.1502 44.6274 25.9952 44.3236 25.9951 44.0008V13.0008C25.9951 12.6224 26.2073 12.2812 26.5352 12.1102L26.6826 12.0477L47.6826 5.04769Z" fill="#6F6780"/>
<mask id="path-4-inside-1_445_10983" fill="white">
<path d="M44.5 13C49.1944 13 52.9999 16.6394 53 21.1289C53 25.6184 49.4583 29.2581 44.5 34C39.5417 29.2581 36 25.6184 36 21.1289C36.0001 16.6394 39.8056 13 44.5 13ZM44.5 19C43.1193 19 42 20.1193 42 21.5C42 22.8807 43.1193 24 44.5 24C45.8807 24 47 22.8807 47 21.5C47 20.1193 45.8807 19 44.5 19Z"/>
</mask>
<path d="M44.5 13V11V13ZM53 21.1289H55V21.1289L53 21.1289ZM44.5 34L43.1177 35.4454L44.5 36.7674L45.8823 35.4454L44.5 34ZM36 21.1289L34 21.1289V21.1289H36ZM44.5 13V15C48.1749 15 50.9999 17.8272 51 21.1289L53 21.1289L55 21.1289C54.9999 15.4517 50.2139 11 44.5 11V13ZM53 21.1289H51C51 22.8022 50.3532 24.427 48.9935 26.2913C47.6097 28.1886 45.6153 30.166 43.1177 32.5546L44.5 34L45.8823 35.4454C48.343 33.0921 50.5986 30.8787 52.2253 28.6483C53.876 26.3849 55 23.9451 55 21.1289H53ZM44.5 34L45.8823 32.5546C43.3847 30.166 41.3903 28.1886 40.0065 26.2913C38.6468 24.427 38 22.8022 38 21.1289H36H34C34 23.9451 35.124 26.3849 36.7747 28.6483C38.4014 30.8787 40.657 33.0921 43.1177 35.4454L44.5 34ZM36 21.1289L38 21.1289C38.0001 17.8272 40.8251 15 44.5 15V13V11C38.7861 11 34.0001 15.4517 34 21.1289L36 21.1289ZM44.5 19V17C42.0147 17 40 19.0147 40 21.5H42H44C44 21.2239 44.2239 21 44.5 21V19ZM42 21.5H40C40 23.9853 42.0147 26 44.5 26V24V22C44.2239 22 44 21.7761 44 21.5H42ZM44.5 24V26C46.9853 26 49 23.9853 49 21.5H47H45C45 21.7761 44.7761 22 44.5 22V24ZM47 21.5H49C49 19.0147 46.9853 17 44.5 17V19V21C44.7761 21 45 21.2239 45 21.5H47Z" fill="#6F6780" mask="url(#path-4-inside-1_445_10983)"/>
<circle cx="11" cy="24" r="2" fill="#6F6780"/>
</svg>
