<?xml version="1.0" encoding="UTF-8" standalone="no"?><svg width="58" height="50" viewBox="0 0 58 50" fill="none" xmlns="http://www.w3.org/2000/svg">
<path d="M36.6116 27.9766L36.6116 31.8235" stroke="#6F6780" stroke-width="1.86788" stroke-linecap="round"/>
<path d="M47.29 11.6289V16.1495" stroke="#6F6780" stroke-width="1.86788" stroke-linecap="round"/>
<rect x="7.53917" y="17.8363" width="16.9679" height="10.5637" rx="2.07978" stroke="#6F6780" stroke-width="1.86788"/>
<rect x="30.8959" y="8.41832" width="12.824" height="10.9405" rx="2.07978" stroke="#6F6780" stroke-width="1.86788"/>
<path d="M34.4824 10.873H39.3797C40.42 10.873 41.2633 11.7164 41.2633 12.7566V13.5101C41.2633 14.5503 40.42 15.3936 39.3797 15.3936H34.4824" stroke="#6F6780" stroke-width="1.86788"/>
<path d="M19.9795 14.8223C20.6078 14.8224 21.1172 15.3325 21.1172 15.9609V16.7217H18.8408V15.9609L18.8467 15.8447C18.9047 15.2706 19.3901 14.8223 19.9795 14.8223Z" stroke="#6F6780" stroke-width="1.86788"/>
<path d="M19.4139 23.1161C19.4139 24.8846 17.9803 26.3182 16.2118 26.3182C14.4434 26.3182 13.0098 24.8846 13.0098 23.1161C13.0098 21.3477 14.4434 19.9141 16.2118 19.9141" stroke="#6F6780" stroke-width="1.86788" stroke-linecap="round"/>
<circle cx="9.99586" cy="25.9409" r="0.753431" fill="#6F6780"/>
<path d="M43.1548 34.875L37.1157 32.2432L36.937 32.166H31.4604V27.8184H36.9165L37.0776 27.7559L43.1548 25.418V34.875Z" stroke="#6F6780" stroke-width="1.86788" stroke-linecap="round"/>
<path d="M44.591 11.5179H47.7303L51.8114 9.36523V18.4064L47.7303 16.2537H44.2771" stroke="#6F6780" stroke-width="1.86788" stroke-linecap="round"/>
<path d="M46.9143 25.7544C47.065 25.6037 48.9862 24.1848 49.928 23.4941" stroke="#6F6780" stroke-width="1.86788" stroke-linecap="round"/>
<path d="M49.9272 35.7369C49.7766 35.5862 47.8553 34.1672 46.9135 33.4766" stroke="#6F6780" stroke-width="1.86788" stroke-linecap="round"/>
<path d="M48.0442 29.332H51.9997" stroke="#6F6780" stroke-width="1.86788" stroke-linecap="round"/>
<path d="M17.53 31.7812V44.7779C17.53 46.2343 18.7107 47.4149 20.167 47.4149H37.8727C39.3291 47.4149 40.5097 46.2343 40.5097 44.7779V36.8669" stroke="#6F6780" stroke-width="1.86788" stroke-linecap="round"/>
<path d="M20.9202 32.9121H28.0778" stroke="#6F6780" stroke-width="1.86788" stroke-linecap="round"/>
<path d="M20.9202 40.6348H28.0778" stroke="#6F6780" stroke-width="1.86788" stroke-linecap="round"/>
<path d="M20.9202 43.6484H26.5709" stroke="#6F6780" stroke-width="1.86788" stroke-linecap="round"/>
<path d="M29.2078 43.6484H34.8585" stroke="#6F6780" stroke-width="1.86788" stroke-linecap="round"/>
<path d="M31.092 40.6348H37.4962" stroke="#6F6780" stroke-width="1.86788" stroke-linecap="round"/>
<path d="M25.0647 36.8672H36.7429" stroke="#6F6780" stroke-width="1.86788" stroke-linecap="round"/>
<path d="M28.0776 23.3066L37.8722 23.3066" stroke="#6F6780" stroke-width="1.86788" stroke-linecap="round"/>
<path d="M26.9481 14.0762L26.7598 11.0625H30.3386" stroke="#6F6780" stroke-width="1.86788" stroke-linecap="round"/>
<circle cx="33.534" cy="6.43318" r="1.37424" stroke="#6F6780" stroke-width="1.86788"/>
<circle cx="39.7566" cy="5.22295" r="1.70307" stroke="#6F6780" stroke-width="1.86788"/>
</svg>
