<?xml version="1.0" encoding="UTF-8" standalone="no"?><svg width="40" height="40" viewBox="0 0 40 40" fill="none" xmlns="http://www.w3.org/2000/svg">
<path d="M34.9994 28.3327V13.3327H11.666V28.3327H34.9994ZM34.9994 4.99935C35.8834 4.99935 36.7313 5.35054 37.3564 5.97566C37.9815 6.60078 38.3327 7.44863 38.3327 8.33268V28.3327C38.3327 29.2167 37.9815 30.0646 37.3564 30.6897C36.7313 31.3148 35.8834 31.666 34.9994 31.666H11.666C10.782 31.666 9.93411 31.3148 9.30899 30.6897C8.68387 30.0646 8.33268 29.2167 8.33268 28.3327V8.33268C8.33268 7.44863 8.68387 6.60078 9.30899 5.97566C9.93411 5.35054 10.782 4.99935 11.666 4.99935H13.3327V1.66602H16.666V4.99935H29.9994V1.66602H33.3327V4.99935H34.9994ZM4.99935 34.9994H28.3327V38.3327H4.99935C4.11529 38.3327 3.26745 37.9815 2.64233 37.3564C2.01721 36.7313 1.66602 35.8834 1.66602 34.9994V14.9993H4.99935V34.9994ZM31.666 24.9994H24.9994V18.3327H31.666V24.9994Z" fill="#464957"/>
</svg>
