<?xml version="1.0" encoding="UTF-8" standalone="no"?><svg width="31" height="39" viewBox="0 0 31 39" fill="none" xmlns="http://www.w3.org/2000/svg">
<path d="M0 3.9C0 2.86566 0.408258 1.87368 1.13496 1.14228C1.86166 0.410892 2.84729 0 3.875 0H19.375C19.8888 0.000110443 20.3815 0.205629 20.7448 0.57135L30.4323 10.3214C30.7957 10.687 30.9999 11.1829 31 11.7V35.1C31 36.1343 30.5917 37.1263 29.865 37.8577C29.1383 38.5891 28.1527 39 27.125 39H3.875C2.84729 39 1.86166 38.5891 1.13496 37.8577C0.408258 37.1263 0 36.1343 0 35.1V3.9ZM26.3229 11.7L19.375 4.7073V11.7H26.3229ZM15.5 3.9H3.875V35.1H27.125V15.6H17.4375C16.9236 15.6 16.4308 15.3946 16.0675 15.0289C15.7041 14.6632 15.5 14.1672 15.5 13.65V3.9ZM7.75 21.45C7.75 20.9328 7.95413 20.4368 8.31748 20.0711C8.68083 19.7054 9.17364 19.5 9.6875 19.5H21.3125C21.8264 19.5 22.3192 19.7054 22.6825 20.0711C23.0459 20.4368 23.25 20.9328 23.25 21.45C23.25 21.9672 23.0459 22.4632 22.6825 22.8289C22.3192 23.1946 21.8264 23.4 21.3125 23.4H9.6875C9.17364 23.4 8.68083 23.1946 8.31748 22.8289C7.95413 22.4632 7.75 21.9672 7.75 21.45ZM7.75 29.25C7.75 28.7328 7.95413 28.2368 8.31748 27.8711C8.68083 27.5054 9.17364 27.3 9.6875 27.3H21.3125C21.8264 27.3 22.3192 27.5054 22.6825 27.8711C23.0459 28.2368 23.25 28.7328 23.25 29.25C23.25 29.7672 23.0459 30.2632 22.6825 30.6289C22.3192 30.9946 21.8264 31.2 21.3125 31.2H9.6875C9.17364 31.2 8.68083 30.9946 8.31748 30.6289C7.95413 30.2632 7.75 29.7672 7.75 29.25Z" fill="white" style="mix-blend-mode:soft-light"/>
</svg>
