<?xml version="1.0" encoding="UTF-8" standalone="no"?><svg width="32" height="32" viewBox="0 0 32 32" fill="none" xmlns="http://www.w3.org/2000/svg">
<g clip-path="url(#clip0_157_6167)">
<g clip-path="url(#clip1_157_6167)">
<mask id="mask0_157_6167" style="mask-type:luminance" maskUnits="userSpaceOnUse" x="0" y="0" width="32" height="32">
<path d="M0 0H31.874V31.874H0V0Z" fill="white"/>
</mask>
<g mask="url(#mask0_157_6167)">
<path fill-rule="evenodd" clip-rule="evenodd" d="M0 16.026C0 23.9507 5.75459 30.538 13.2808 31.874V20.3635H9.29659V15.937H13.2808V12.395C13.2808 8.41076 15.848 6.19817 19.479 6.19817C20.6291 6.19817 21.8696 6.3748 23.0197 6.55144V10.6247H20.9837C19.0354 10.6247 18.5932 11.5982 18.5932 12.8386V15.937H22.843L22.1352 20.3635H18.5932V31.874C26.1194 30.538 31.874 23.9507 31.874 16.026C31.874 7.2115 24.7024 0 15.937 0C7.17165 0 0 7.2115 0 16.026Z" fill="#65C430"/>
</g>
</g>
</g>
<defs>
<clipPath id="clip0_157_6167">
<rect width="31.874" height="31.874" fill="white"/>
</clipPath>
<clipPath id="clip1_157_6167">
<rect width="31.874" height="31.874" fill="white"/>
</clipPath>
</defs>
</svg>
