<?xml version="1.0" encoding="UTF-8" standalone="no"?><svg width="132" height="94" viewBox="0 0 132 94" fill="none" xmlns="http://www.w3.org/2000/svg">
<path d="M28.0205 25.25C28.2867 25.267 28.5455 25.3439 28.7773 25.4756L41.3672 32.5254L41.3779 32.5312L41.3887 32.5381C41.7727 32.78 42.0498 33.1606 42.1611 33.6006C42.2725 34.0404 42.2101 34.5062 41.9873 34.9014C41.7643 35.2966 41.3969 35.5917 40.9629 35.7246C40.529 35.8573 40.0605 35.8183 39.6543 35.6162L39.6436 35.6113L39.6328 35.6055L29 29.6484L17.3389 70.5039L36.6836 82.3008L41.415 44.5156L41.4453 44.3447C41.4836 44.1756 41.5467 44.0126 41.6328 43.8613C41.7477 43.6596 41.9016 43.4822 42.085 43.3398C42.2683 43.1975 42.4783 43.0927 42.7021 43.0312C42.9259 42.9699 43.1594 42.9528 43.3896 42.9814C43.62 43.0102 43.843 43.0837 44.0449 43.1982C44.2469 43.3128 44.4246 43.4663 44.5674 43.6494C44.71 43.8324 44.8153 44.042 44.877 44.2656C44.9232 44.4334 44.944 44.6069 44.9395 44.7803L44.9268 44.9531L40.1816 82.8369L64.2334 76.2861V69.7588C64.2334 69.2903 64.4194 68.8408 64.751 68.5098C65.0826 68.1789 65.5325 67.9933 66.001 67.9932C66.4696 67.9932 66.9193 68.1788 67.251 68.5098C67.5827 68.8408 67.7695 69.2902 67.7695 69.7588V76.2861L91.8174 82.8359L87.0742 44.9531C87.0161 44.488 87.1454 44.0191 87.4336 43.6494C87.7219 43.2797 88.1451 43.0394 88.6104 42.9814C89.0755 42.9235 89.5447 43.0524 89.915 43.3398C90.2854 43.6274 90.5267 44.0504 90.585 44.5156L95.3184 82.3008L114.664 70.501L103.002 29.6436L92.3701 35.5996L92.3594 35.6064L92.3486 35.6113C91.9423 35.8135 91.4731 35.8526 91.0391 35.7197C90.6051 35.5868 90.2386 35.2917 90.0156 34.8965C89.7927 34.5013 89.7305 34.0356 89.8418 33.5957C89.9532 33.1558 90.2293 32.7752 90.6133 32.5332L90.625 32.5264L90.6357 32.5205L103.223 25.4736L103.401 25.3857C103.585 25.3084 103.782 25.263 103.982 25.251C104.249 25.2351 104.516 25.2791 104.763 25.3809C105.01 25.4827 105.23 25.6395 105.408 25.8389C105.586 26.038 105.716 26.2747 105.789 26.5312L118.432 70.8281V70.8291L118.465 70.9688C118.53 71.298 118.5 71.6397 118.377 71.9541C118.254 72.2682 118.044 72.5397 117.773 72.7373L117.653 72.8174L94.8389 86.7285L94.8398 86.7295C94.8386 86.7303 94.8371 86.7307 94.8359 86.7314L94.8232 86.7393L94.8223 86.7383C94.7719 86.7692 94.7255 86.7887 94.6885 86.7998C94.6783 86.8028 94.6682 86.8044 94.6592 86.8066C94.4297 86.9229 94.1787 86.9912 93.9209 87H93.9033C93.7457 86.9997 93.5885 86.9783 93.4365 86.9365V86.9355L66.001 79.4648L38.5654 86.9355L38.5664 86.9365C38.4144 86.9784 38.2573 86.9997 38.0996 87H38.085C37.826 86.9927 37.5737 86.9254 37.3428 86.8096C37.3388 86.8086 37.3344 86.8087 37.3301 86.8076C37.291 86.7975 37.2362 86.7769 37.1768 86.7402V86.7422L14.3496 72.8203C14.0204 72.6193 13.7656 72.3161 13.625 71.957C13.4844 71.5979 13.4658 71.202 13.5713 70.8311L26.2139 26.5342C26.2849 26.2775 26.4135 26.0405 26.5898 25.8408C26.7674 25.6397 26.9883 25.4813 27.2363 25.3789C27.4843 25.2765 27.7527 25.2329 28.0205 25.25ZM37.4004 86.8213C37.4017 86.8215 37.4033 86.8211 37.4043 86.8213C37.403 86.8211 37.3994 86.8201 37.3945 86.8193C37.397 86.8198 37.3988 86.821 37.4004 86.8213ZM94.6973 86.7871C94.7013 86.7852 94.7067 86.7853 94.7109 86.7832L94.71 86.7812C94.7059 86.7835 94.7014 86.7849 94.6973 86.7871Z" fill="white" stroke="white"/>
<path d="M66.002 5C78.369 5 88.0635 14.672 88.0635 27.0156C88.0635 36.52 83.0204 45.8466 77.9307 52.8506C73.4677 58.992 68.9239 63.4079 67.5674 64.6797L67.1904 65.0283C66.8631 65.3245 66.4365 65.4882 65.9951 65.4863C65.6087 65.4846 65.2346 65.3564 64.9297 65.124L64.8037 65.0176C64.3697 64.617 59.1676 59.7729 54.0703 52.7188C48.9842 45.68 43.9414 36.3587 43.9414 27.0156C43.9414 14.6722 53.6351 5.00022 66.002 5ZM66.002 8.53125C55.4334 8.53146 47.4775 16.4693 47.4775 27.0156C47.4775 34.4557 51.2164 42.1495 55.4814 48.4932C59.4946 54.4621 63.9323 59.1716 66.0117 61.2578C68.0939 59.1958 72.5269 54.5451 76.5342 48.6025C80.7931 42.2869 84.5264 34.582 84.5264 27.0156C84.5264 16.4692 76.5708 8.53125 66.002 8.53125Z" fill="white" stroke="white"/>
<path d="M66.001 15.125C72.5692 15.1252 77.915 20.4586 77.915 27.0156C77.915 33.5727 72.5692 38.906 66.001 38.9062C59.4326 38.9062 54.0859 33.5728 54.0859 27.0156C54.0859 20.4585 59.4326 15.125 66.001 15.125ZM66.001 18.6562C61.3805 18.6562 57.6221 22.4074 57.6221 27.0156C57.6221 31.6238 61.3805 35.375 66.001 35.375C70.6213 35.3748 74.3789 31.6237 74.3789 27.0156C74.3789 22.4076 70.6213 18.6565 66.001 18.6562Z" fill="white" stroke="white"/>
</svg>
