<?xml version="1.0" encoding="UTF-8" standalone="no"?><svg width="101" height="101" viewBox="0 0 101 101" fill="none" xmlns="http://www.w3.org/2000/svg">
<path d="M36.7695 21.6736C35.1399 20.2522 33.1313 19.3366 30.9895 19.0389C28.8477 18.7412 26.6655 19.0743 24.7101 19.9974C22.7546 20.9206 21.1106 22.3937 19.9793 24.2366C18.848 26.0794 18.2784 28.2121 18.3402 30.3736C18.4021 32.5351 19.0926 34.6318 20.3274 36.407C21.5622 38.1821 23.2877 39.5589 25.2927 40.3688C27.2977 41.1786 29.4954 41.3864 31.6167 40.9668C33.738 40.5472 35.691 39.5183 37.2366 38.0061C38.6658 40.2258 40.6289 42.0516 42.9463 43.3161C45.2637 44.5807 47.8613 45.2437 50.5013 45.2444C53.1405 45.2446 55.7376 44.5829 58.055 43.3198C60.3723 42.0568 62.3359 40.2327 63.766 38.0145C65.3117 39.5268 67.2647 40.5556 69.386 40.9752C71.5073 41.3949 73.7049 41.187 75.7099 40.3772C77.715 39.5673 79.4404 38.1906 80.6752 36.4154C81.91 34.6402 82.6006 32.5436 82.6624 30.382C82.7242 28.2205 82.1546 26.0878 81.0233 24.245C79.892 22.4021 78.248 20.929 76.2926 20.0059C74.3371 19.0827 72.155 18.7496 70.0131 19.0473C67.8713 19.345 65.8627 20.2606 64.2331 21.682C62.857 19.2522 60.8609 17.2311 58.4485 15.8249C56.036 14.4187 53.2937 13.6778 50.5013 13.6777C47.7098 13.6769 44.968 14.4166 42.5556 15.8213C40.1433 17.2259 38.1467 19.2454 36.7695 21.6736ZM41.0326 29.459C41.0326 26.9477 42.0302 24.5393 43.8059 22.7636C45.5816 20.9878 47.9901 19.9902 50.5013 19.9902C53.0126 19.9902 55.421 20.9878 57.1967 22.7636C58.9725 24.5393 59.9701 26.9477 59.9701 29.459C59.9701 31.9703 58.9725 34.3787 57.1967 36.1544C55.421 37.9301 53.0126 38.9277 50.5013 38.9277C47.9901 38.9277 45.5816 37.9301 43.8059 36.1544C42.0302 34.3787 41.0326 31.9703 41.0326 29.459ZM35.0904 26.0502C34.5284 28.5948 34.6036 31.2388 35.3092 33.7473C34.5118 35.0186 33.3221 35.9958 31.9201 36.5311C30.518 37.0663 28.9798 37.1306 27.538 36.7142C26.0962 36.2978 24.8291 35.4233 23.9284 34.2229C23.0276 33.0225 22.5422 31.5615 22.5454 30.0608C22.5462 28.5962 23.0121 27.1696 23.8758 25.9869C24.7396 24.8041 25.9567 23.9261 27.3515 23.4796C28.7464 23.033 30.2471 23.041 31.6371 23.5022C33.0272 23.9634 34.2349 24.8542 35.0862 26.046M65.6892 33.7431C66.3973 31.2335 66.4725 28.5876 65.908 26.0418C66.7685 24.8349 67.994 23.9364 69.4039 23.4789C70.8137 23.0213 72.3333 23.029 73.7385 23.5007C75.1437 23.9724 76.3601 24.8832 77.2083 26.0988C78.0565 27.3143 78.4917 28.7703 78.4496 30.2519C78.4075 31.7336 77.8904 33.1625 76.9745 34.3279C76.0586 35.4933 74.7924 36.3336 73.3627 36.7247C71.933 37.1159 70.4155 37.0372 69.0338 36.5004C67.6522 35.9635 66.4797 34.9969 65.6892 33.7431ZM20.8368 43.3339C22.2971 42.9467 23.6774 43.4264 24.6285 44.1166C25.0072 44.3902 25.5291 44.7268 26.1645 45.034C26.651 45.2861 27.02 45.718 27.193 46.2379C27.366 46.7578 27.3294 47.3246 27.091 47.818C26.8525 48.3113 26.4311 48.6921 25.9162 48.8795C25.4013 49.0669 24.8337 49.0461 24.3339 48.8215C23.5718 48.4546 22.8437 48.0209 22.1582 47.5254C22.0899 47.4766 22.0147 47.4383 21.9351 47.4117L21.9057 47.4075C21.3383 47.559 20.7755 47.7274 20.2181 47.9125L17.3312 48.8552C16.2547 49.2057 15.2816 49.8172 14.4988 50.6353C13.7161 51.4533 13.1479 52.4523 12.8451 53.5433L11.6542 62.1662C11.4185 63.8621 12.3149 65.133 13.59 65.436C14.5299 65.6661 15.6703 65.8905 17.0114 66.1094C17.2844 66.1536 17.546 66.2511 17.7813 66.3964C18.0166 66.5418 18.221 66.732 18.3828 66.9563C18.5446 67.1806 18.6606 67.4346 18.7242 67.7037C18.7879 67.9729 18.7979 68.2519 18.7536 68.5249C18.7094 68.798 18.6119 69.0596 18.4666 69.2949C18.3212 69.5302 18.131 69.7346 17.9067 69.8964C17.6824 70.0581 17.4284 70.1742 17.1593 70.2378C16.8901 70.3014 16.6111 70.3114 16.3381 70.2672C15.0892 70.0684 13.8483 69.8227 12.6179 69.5307C8.85144 68.6344 7.00819 65.0278 7.48373 61.5896L8.71257 52.7269L8.73782 52.6132C9.19868 50.8113 10.1079 49.1553 11.3808 47.7992C12.6537 46.4431 14.249 45.4311 16.0182 44.8573L18.9009 43.9104C19.5462 43.7 20.1915 43.5078 20.8368 43.3339ZM80.7171 43.3339C80.0673 43.1748 79.3902 43.1625 78.7351 43.2979C78.0799 43.4333 77.4632 43.713 76.9296 44.1166C76.5509 44.3902 76.0291 44.7268 75.3936 45.034C74.9071 45.2861 74.5382 45.718 74.3652 46.2379C74.1921 46.7578 74.2287 47.3246 74.4672 47.818C74.7056 48.3113 75.1271 48.6921 75.6419 48.8795C76.1568 49.0669 76.7245 49.0461 77.2242 48.8215C77.9864 48.4546 78.7144 48.0209 79.3999 47.5254C79.4682 47.4766 79.5434 47.4383 79.623 47.4117L79.6524 47.4075C80.222 47.5562 80.7845 47.7246 81.34 47.9125L84.2269 48.8552C86.4405 49.5832 88.1196 51.3549 88.713 53.5433L89.9039 62.1662C90.1396 63.8621 89.2474 65.133 87.9681 65.436C86.8365 65.7034 85.6952 65.928 84.5467 66.1094C84.2737 66.1536 84.0121 66.2511 83.7768 66.3964C83.5415 66.5418 83.3371 66.732 83.1753 66.9563C83.0135 67.1806 82.8975 67.4346 82.8339 67.7037C82.7703 67.9729 82.7603 68.2519 82.8045 68.5249C82.8487 68.798 82.9463 69.0596 83.0916 69.2949C83.2369 69.5302 83.4271 69.7346 83.6514 69.8964C83.8758 70.0581 84.1297 70.1742 84.3989 70.2378C84.668 70.3014 84.9471 70.3114 85.2201 70.2672C86.6565 70.0287 87.8966 69.7832 88.9402 69.5307C92.7067 68.6344 94.5499 65.0278 94.0744 61.5896L92.8456 52.7269L92.8203 52.6132C92.3595 50.8113 91.4503 49.1553 90.1773 47.7992C88.9044 46.4431 87.3091 45.4311 85.5399 44.8573L82.6572 43.9104C82.0172 43.701 81.3674 43.5088 80.7171 43.3339Z" fill="#75B62D"/>
<path d="M57.4576 49.2888C59.1241 48.182 61.5523 47.3108 64.1194 48.0389C64.7927 48.2268 65.4618 48.4303 66.1268 48.6491L70.1626 49.9747C72.6723 50.7905 74.9351 52.2276 76.7407 54.1523C78.5462 56.077 79.8359 58.427 80.4898 60.9837L80.5319 61.152L82.2531 73.5666C82.9306 78.4651 80.3046 83.6372 74.9138 84.9207C69.99 86.0948 62.0657 87.3237 50.5054 87.3237C38.9325 87.3237 31.0166 86.0948 26.0887 84.9249C20.6978 83.6372 18.0718 78.4651 18.7493 73.5708L20.4663 61.1563L20.5084 60.9879C21.1621 58.4299 22.4521 56.0788 24.2585 54.1533C26.0648 52.2277 28.3288 50.7903 30.8399 49.9747L34.8799 48.6491C35.5448 48.4331 36.2125 48.2283 36.883 48.0347C39.4501 47.3108 41.8825 48.182 43.5448 49.2888C45.0598 50.2903 47.5091 51.4939 50.5012 51.4939C53.4933 51.4939 55.9468 50.2903 57.4576 49.2888ZM62.4024 54.1115C62.2004 54.0526 61.6828 54.061 60.9505 54.545C58.8379 55.9463 55.1725 57.8064 50.5012 57.8064C45.83 57.8064 42.1645 55.9463 40.0561 54.545C39.3197 54.061 38.802 54.0526 38.6 54.1115C38.0109 54.2798 37.4273 54.458 36.8494 54.646L32.8094 55.9716C31.3366 56.4503 30.0051 57.2862 28.9338 58.4045C27.8625 59.5228 27.0846 60.8889 26.6694 62.3809L25.0029 74.4335C24.6873 76.7229 25.8867 78.3852 27.5532 78.7808C31.9593 79.8328 39.3828 81.0112 50.5012 81.0112C61.6196 81.0112 69.0473 79.8328 73.4493 78.7808C75.1158 78.3852 76.3151 76.7229 75.9995 74.4335L74.333 62.3809C73.9175 60.8884 73.1389 59.522 72.0668 58.4037C70.9947 57.2853 69.6624 56.4498 68.1888 55.9716L64.1573 54.646C63.5763 54.4551 62.9912 54.2769 62.4024 54.1115Z" fill="#75B62D"/>
</svg>
