<?xml version="1.0" encoding="UTF-8" standalone="no"?><svg width="102" height="103" viewBox="0 0 102 103" fill="none" xmlns="http://www.w3.org/2000/svg">
<path d="M68.7545 89.3203C63.2082 91.9835 57.1415 93.3583 51.0001 93.3437C28.1521 93.3437 9.56259 74.572 9.56259 51.5C9.56259 41.6023 12.9318 32.2551 19.1251 24.7586V32.1875H25.5001V12.875H6.37509V19.3125H15.434C7.53081 28.131 3.16473 39.6065 3.18759 51.5C3.18759 78.1223 24.6363 99.7812 51.0001 99.7812C58.0899 99.7962 65.093 98.208 71.4957 95.1334L68.7545 89.3203Z" fill="#0F4EB3"/>
<path d="M66.9375 28.9688C56.865 28.9688 48.6062 36.8772 47.8826 46.865C44.3784 43.6361 39.8063 41.8454 35.0625 41.8438H22.3125V54.7188C22.3125 65.3696 30.8932 74.0312 41.4375 74.0312H47.8125V86.9062H54.1875V61.1562H60.5625C71.1068 61.1562 79.6875 52.4946 79.6875 41.8438V28.9688H66.9375ZM41.4375 67.5938C34.4059 67.5938 28.6875 61.8193 28.6875 54.7188V48.2812H35.0625C42.0941 48.2812 47.8125 54.0557 47.8125 61.1562V63.0424L40.5036 55.6618L35.9964 60.2132L43.3054 67.5938H41.4375ZM73.3125 41.8438C73.3125 48.9443 67.5941 54.7188 60.5625 54.7188H58.6946L66.0036 47.3382L61.4964 42.7868L54.1875 50.1674V48.2812C54.1875 41.1807 59.9059 35.4062 66.9375 35.4062H73.3125V41.8438Z" fill="#0F4EB3"/>
<path d="M98.812 51.5001C98.812 24.8778 77.3633 3.21885 50.9995 3.21885C43.9097 3.20395 36.9066 4.79208 30.5039 7.86673L33.2452 13.6798C38.7915 11.0166 44.8581 9.64179 50.9995 9.65635C73.8475 9.65635 92.437 28.4281 92.437 51.5001C92.437 61.3978 89.0678 70.745 82.8745 78.2415V70.8126H76.4995V90.1251H95.6245V83.6876H86.5657C94.4688 74.8691 98.8349 63.3936 98.812 51.5001Z" fill="#0F4EB3"/>
</svg>
