<?xml version="1.0" encoding="UTF-8" standalone="no"?><svg width="24" height="25" viewBox="0 0 24 25" fill="none" xmlns="http://www.w3.org/2000/svg">
<path d="M4 4.5C4 3.96957 4.21071 3.46086 4.58579 3.08579C4.96086 2.71071 5.46957 2.5 6 2.5H14C14.2652 2.50006 14.5195 2.60545 14.707 2.793L19.707 7.793C19.8946 7.98049 19.9999 8.23481 20 8.5V20.5C20 21.0304 19.7893 21.5391 19.4142 21.9142C19.0391 22.2893 18.5304 22.5 18 22.5H6C5.46957 22.5 4.96086 22.2893 4.58579 21.9142C4.21071 21.5391 4 21.0304 4 20.5V4.5ZM17.586 8.5L14 4.914V8.5H17.586ZM12 4.5H6V20.5H18V10.5H13C12.7348 10.5 12.4804 10.3946 12.2929 10.2071C12.1054 10.0196 12 9.76522 12 9.5V4.5ZM8 13.5C8 13.2348 8.10536 12.9804 8.29289 12.7929C8.48043 12.6054 8.73478 12.5 9 12.5H15C15.2652 12.5 15.5196 12.6054 15.7071 12.7929C15.8946 12.9804 16 13.2348 16 13.5C16 13.7652 15.8946 14.0196 15.7071 14.2071C15.5196 14.3946 15.2652 14.5 15 14.5H9C8.73478 14.5 8.48043 14.3946 8.29289 14.2071C8.10536 14.0196 8 13.7652 8 13.5ZM8 17.5C8 17.2348 8.10536 16.9804 8.29289 16.7929C8.48043 16.6054 8.73478 16.5 9 16.5H15C15.2652 16.5 15.5196 16.6054 15.7071 16.7929C15.8946 16.9804 16 17.2348 16 17.5C16 17.7652 15.8946 18.0196 15.7071 18.2071C15.5196 18.3946 15.2652 18.5 15 18.5H9C8.73478 18.5 8.48043 18.3946 8.29289 18.2071C8.10536 18.0196 8 17.7652 8 17.5Z" fill="black"/>
</svg>
