<?xml version="1.0" encoding="UTF-8" standalone="no"?><svg width="33" height="32" viewBox="0 0 33 32" fill="none" xmlns="http://www.w3.org/2000/svg">
<g clip-path="url(#clip0_157_6176)">
<path d="M16.6453 10.6617C13.725 10.6617 11.3707 13.0387 11.3707 15.9363C11.3707 18.8339 13.7476 21.2109 16.6453 21.2109C19.5429 21.2109 21.9199 18.8339 21.9199 15.9363C21.9199 13.0387 19.5429 10.6617 16.6453 10.6617ZM32.4917 15.9363C32.4917 13.7404 32.4917 11.5898 32.3786 9.39398C32.2654 6.85854 31.6768 4.59476 29.8205 2.7611C27.9642 0.904805 25.723 0.316222 23.1876 0.203033C20.9917 0.0898436 18.8412 0.0898438 16.6453 0.0898438C14.4494 0.0898438 12.2988 0.0898436 10.103 0.203033C7.56753 0.316222 5.30375 0.904805 3.47009 2.7611C1.61379 4.6174 1.02521 6.85854 0.912017 9.39398C0.798828 11.5898 0.798828 13.7404 0.798828 15.9363C0.798828 18.1322 0.798828 20.2828 0.912017 22.4786C1.02521 25.0141 1.61379 27.2778 3.47009 29.1115C5.32639 30.9678 7.56753 31.5564 10.103 31.6696C12.2988 31.7828 14.4494 31.7828 16.6453 31.7828C18.8412 31.7828 20.9917 31.7828 23.1876 31.6696C25.723 31.5564 27.9868 30.9678 29.8205 29.1115C31.6768 27.2552 32.2654 25.0141 32.3786 22.4786C32.5144 20.3054 32.4917 18.1322 32.4917 15.9363ZM16.6453 24.0633C12.1404 24.0633 8.51832 20.4412 8.51832 15.9363C8.51832 11.4314 12.1404 7.80933 16.6453 7.80933C21.1502 7.80933 24.7723 11.4314 24.7723 15.9363C24.7723 20.4412 21.1502 24.0633 16.6453 24.0633ZM25.1118 9.37134C24.0705 9.37134 23.2102 8.53374 23.2102 7.46977C23.2102 6.40579 24.0478 5.56819 25.1118 5.56819C26.1758 5.56819 27.0134 6.40579 27.0134 7.46977C27.0191 7.71773 26.9739 7.96423 26.8804 8.19398C26.7869 8.42373 26.6473 8.63184 26.4701 8.80539C26.2965 8.98259 26.0884 9.12224 25.8587 9.2157C25.6289 9.30916 25.3824 9.35443 25.1345 9.3487L25.1118 9.37134Z" fill="#65C430"/>
</g>
<defs>
<clipPath id="clip0_157_6176">
<rect width="31.874" height="31.874" fill="white" transform="translate(0.708984)"/>
</clipPath>
</defs>
</svg>
