<?xml version="1.0" encoding="UTF-8" standalone="no"?><svg width="191" height="62" viewBox="0 0 191 62" fill="none" xmlns="http://www.w3.org/2000/svg">
<g clip-path="url(#clip0_552_11029)">
<path d="M55.4629 51.5781H54.1016V55.3112H55.4629V51.5781Z" fill="#17984F"/>
<path d="M58.3763 55.3112L57.2728 53.3455V55.3112H56.1094V51.5781H57.6986L58.8681 53.628V51.5781H60.0316V55.3112H58.3763Z" fill="#17984F"/>
<path d="M62.0429 52.546V53.087H62.9605V54.0488H62.0429V55.3112H60.6875V51.5781H63.0984V52.546H62.0429Z" fill="#17984F"/>
<path d="M65.5201 55.394C64.2727 55.394 63.457 54.8951 63.457 53.4403C63.457 52.196 64.2547 51.4746 65.5501 51.4746C66.9894 51.4746 67.6251 52.19 67.6251 53.3983C67.6251 54.6065 66.8035 55.388 65.5201 55.388M65.5501 52.4785C65.0223 52.4785 64.8124 52.8873 64.8124 53.3862C64.8124 54.1316 65.1063 54.3841 65.5441 54.3841C65.9819 54.3841 66.2637 53.9994 66.2637 53.4463C66.2637 52.8933 66.0358 52.4785 65.5501 52.4785Z" fill="#17984F"/>
<path d="M70.2822 55.3112L69.7544 54.0368H69.4726V55.3112H68.1172V51.5781H70.0963C70.9239 51.5781 71.6196 51.8727 71.6196 52.7263C71.6196 53.1892 71.4576 53.5318 71.0618 53.7542L71.8595 55.3112H70.2822ZM69.8324 52.4919H69.4786V53.1291H69.7724C70.0903 53.1291 70.2102 52.9668 70.2102 52.7984C70.2102 52.5941 70.0963 52.4919 69.8384 52.4919" fill="#17984F"/>
<path d="M76.3309 55.3112C76.3309 54.4576 76.3069 53.5438 76.2589 52.7443L75.5093 55.3112H74.1599L73.4042 52.7443C73.3682 53.5799 73.3323 54.4816 73.3323 55.3112H72.1328C72.1328 54.0368 72.2108 52.8044 72.3427 51.5781H74.2678L74.9035 53.7122L75.5332 51.5781H77.5123C77.6263 52.7624 77.7043 54.1811 77.7043 55.3112H76.3369H76.3309Z" fill="#17984F"/>
<path d="M80.9074 55.3112C80.8474 55.0707 80.7935 54.8784 80.7455 54.686H79.4381C79.3901 54.8483 79.3241 55.0647 79.2582 55.3112H77.9688C78.3766 54.0188 78.7964 52.9307 79.3421 51.5781H80.9194C81.4232 52.8165 81.8909 54.0548 82.2808 55.3112H80.9134H80.9074ZM80.0978 52.6662C80.0078 52.9187 79.8279 53.4296 79.7499 53.6881H80.4396C80.3617 53.4296 80.1937 52.9187 80.1038 52.6662" fill="#17984F"/>
<path d="M82.4336 55.3112V54.3494L83.693 52.6301H82.5056V51.5781H85.3123V52.5279L84.0708 54.2592H85.3962V55.3112H82.4336Z" fill="#17984F"/>
<path d="M87.3262 51.5781H85.9648V55.3112H87.3262V51.5781Z" fill="#17984F"/>
<path d="M89.899 55.394C88.6456 55.394 87.8359 54.8951 87.8359 53.4403C87.8359 52.196 88.6336 51.4746 89.935 51.4746C91.3683 51.4746 92.004 52.19 92.004 53.3983C92.004 54.6065 91.1824 55.388 89.899 55.388M89.929 52.4785C89.4012 52.4785 89.1913 52.8873 89.1913 53.3862C89.1913 54.1316 89.4852 54.3841 89.923 54.3841C90.3608 54.3841 90.6426 53.9994 90.6426 53.4463C90.6426 52.8933 90.4147 52.4785 89.929 52.4785Z" fill="#17984F"/>
<path d="M94.7787 55.3112L93.6692 53.3455V55.3112H92.5117V51.5781H94.101L95.2764 53.628V51.5781H96.4339V55.3112H94.7787Z" fill="#17984F"/>
<path d="M97.082 55.3112V51.5781H99.6668V52.546H98.4314V52.9607H99.4389V53.8745H98.4314V54.3313H99.6908V55.3112H97.082Z" fill="#17984F"/>
<path d="M100.47 56.4758L99.9727 55.9949C100.32 55.6883 100.428 55.526 100.428 55.4058C100.428 55.2074 100.153 55.1172 100.153 54.6363C100.153 54.2275 100.446 53.957 100.83 53.957C101.76 53.957 101.988 55.4839 100.47 56.4758Z" fill="#17984F"/>
<path d="M105.018 52.544V53.085H105.935V54.0469H105.018V55.3092H103.656V51.5762H106.073V52.544H105.018Z" fill="#17984F"/>
<path d="M108.497 55.394C107.243 55.394 106.434 54.8951 106.434 53.4403C106.434 52.196 107.231 51.4746 108.533 51.4746C109.966 51.4746 110.602 52.19 110.602 53.3983C110.602 54.6065 109.78 55.388 108.497 55.388M108.527 52.4785C107.999 52.4785 107.789 52.8873 107.789 53.3862C107.789 54.1316 108.077 54.3841 108.521 54.3841C108.964 54.3841 109.234 53.9994 109.234 53.4463C109.234 52.8933 109.006 52.4785 108.521 52.4785" fill="#17984F"/>
<path d="M113.259 55.3112L112.731 54.0368H112.455V55.3112H111.094V51.5781H113.073C113.9 51.5781 114.596 51.8727 114.596 52.7263C114.596 53.1892 114.44 53.5318 114.038 53.7542L114.83 55.3112H113.253H113.259ZM112.803 52.4919H112.449V53.1291H112.743C113.061 53.1291 113.181 52.9668 113.181 52.7984C113.181 52.5941 113.067 52.4919 112.803 52.4919Z" fill="#17984F"/>
<path d="M119.304 55.3112C119.304 54.4576 119.28 53.5438 119.232 52.7443L118.482 55.3112H117.127L116.371 52.7443C116.335 53.5799 116.305 54.4816 116.305 55.3112H115.105C115.111 54.0368 115.183 52.8044 115.315 51.5781H117.24L117.876 53.7122L118.506 51.5781H120.479C120.593 52.7624 120.671 54.1811 120.671 55.3112H119.304Z" fill="#17984F"/>
<path d="M123.88 55.3112C123.814 55.0707 123.766 54.8784 123.712 54.686H122.405C122.351 54.8483 122.291 55.0647 122.219 55.3112H120.93C121.343 54.0188 121.751 52.9307 122.303 51.5781H123.886C124.39 52.8165 124.858 54.0548 125.248 55.3112H123.88ZM123.077 52.6662C122.987 52.9187 122.813 53.4296 122.729 53.6881H123.413C123.341 53.4296 123.167 52.9187 123.077 52.6662Z" fill="#17984F"/>
<path d="M125.402 55.3092V54.3474L126.668 52.6282H125.48V51.5762H128.287V52.526L127.04 54.2573H128.365V55.3092H125.402Z" fill="#17984F"/>
<path d="M130.295 51.5781H128.934V55.3112H130.295V51.5781Z" fill="#17984F"/>
<path d="M132.868 55.394C131.62 55.394 130.805 54.8951 130.805 53.4403C130.805 52.196 131.596 51.4746 132.898 51.4746C134.337 51.4746 134.973 52.19 134.973 53.3983C134.973 54.6065 134.151 55.388 132.868 55.388M132.898 52.4785C132.37 52.4785 132.16 52.8873 132.16 53.3862C132.16 54.1316 132.454 54.3841 132.892 54.3841C133.33 54.3841 133.611 53.9994 133.611 53.4463C133.611 52.8933 133.384 52.4785 132.898 52.4785Z" fill="#17984F"/>
<path d="M137.751 55.3112L136.642 53.3455V55.3112H135.484V51.5781H137.074L138.249 53.628V51.5781H139.407V55.3112H137.751Z" fill="#17984F"/>
<path d="M140.059 55.3112V51.5781H142.643V52.546H141.408V52.9607H142.416V53.8745H141.408V54.3313H142.661V55.3112H140.059Z" fill="#17984F"/>
<path d="M144.84 55.3112V51.5781H147.425V52.546H146.183V52.9607H147.197V53.8745H146.183V54.3313H147.443V55.3112H144.84Z" fill="#17984F"/>
<path d="M149.735 55.3112H148.02V51.5781H149.915C151.006 51.5781 151.84 52.1131 151.84 53.3996C151.84 54.5177 151.072 55.3112 149.741 55.3112M149.657 52.564H149.375V54.3013H149.645C150.161 54.3013 150.448 53.9767 150.448 53.4717C150.448 52.9668 150.274 52.564 149.657 52.564Z" fill="#17984F"/>
<path d="M153.93 55.3112V51.5781H156.514V52.546H155.279V52.9607H156.287V53.8745H155.279V54.3313H156.538V55.3112H153.93Z" fill="#17984F"/>
<path d="M158.825 55.3112H157.109V51.5781H158.999C160.09 51.5781 160.924 52.1131 160.924 53.3996C160.924 54.5177 160.156 55.3112 158.819 55.3112M158.747 52.564H158.465V54.3013H158.735C159.25 54.3013 159.538 53.9767 159.538 53.4717C159.538 52.9668 159.364 52.564 158.747 52.564Z" fill="#17984F"/>
<path d="M163.285 55.3695C162.145 55.3695 161.426 54.9247 161.426 53.9027V51.5763H162.781V53.8246C162.781 54.2273 163.039 54.3596 163.315 54.3596C163.651 54.3596 163.837 54.1191 163.837 53.8426V51.5703H165.18V53.7404C165.18 54.8044 164.4 55.3635 163.285 55.3635" fill="#17984F"/>
<path d="M167.762 55.3937C167.037 55.3937 166.539 55.1954 166.191 54.8527C165.849 54.5101 165.699 54.0352 165.699 53.4941C165.699 52.1476 166.623 51.4863 167.822 51.4863C168.188 51.4863 168.572 51.5525 168.83 51.6546L168.488 52.6525C168.32 52.5804 168.158 52.5383 167.906 52.5383C167.396 52.5383 167.085 52.875 167.085 53.416C167.085 54.0171 167.36 54.3538 167.936 54.3538C168.14 54.3538 168.32 54.3297 168.542 54.2456L168.836 55.2134C168.554 55.3156 168.146 55.3877 167.768 55.3877" fill="#17984F"/>
<path d="M171.851 55.3092C171.791 55.0688 171.737 54.8764 171.689 54.6841H170.382C170.334 54.8464 170.268 55.0628 170.196 55.3092H168.906C169.32 54.0168 169.728 52.9287 170.28 51.5762H171.863C172.367 52.8145 172.834 54.0529 173.224 55.3092H171.857H171.851ZM171.041 52.6642C170.951 52.9167 170.771 53.4277 170.693 53.6862H171.377C171.305 53.4277 171.131 52.9167 171.041 52.6642Z" fill="#17984F"/>
<path d="M173.367 55.3112V54.3494L174.633 52.6301H173.451V51.5781H176.258V52.5279L175.004 54.2592H176.336V55.3112H173.367Z" fill="#17984F"/>
<path d="M178.268 51.5781H176.906V55.3112H178.268V51.5781Z" fill="#17984F"/>
<path d="M180.84 55.394C179.587 55.394 178.777 54.8951 178.777 53.4403C178.777 52.196 179.575 51.4746 180.876 51.4746C182.31 51.4746 182.945 52.19 182.945 53.3983C182.945 54.6065 182.124 55.388 180.846 55.388M180.87 52.4785C180.343 52.4785 180.133 52.8873 180.133 53.3862C180.133 54.1316 180.427 54.3841 180.864 54.3841C181.302 54.3841 181.584 53.9994 181.584 53.4463C181.584 52.8933 181.356 52.4785 180.87 52.4785Z" fill="#17984F"/>
<path d="M185.716 55.3112L184.613 53.3455V55.3112H183.449V51.5781H185.044L186.214 53.628V51.5781H187.377V55.3112H185.716Z" fill="#17984F"/>
<path d="M188.031 55.3092V51.5762H190.616V52.544H189.375V52.9588H190.388V53.8725H189.375V54.3294H190.634V55.3092H188.031Z" fill="#17984F"/>
<path d="M56.6967 61.8914C56.6308 61.645 56.5828 61.4526 56.5288 61.2723H55.2214C55.1674 61.4285 55.1075 61.645 55.0355 61.8914H53.7461C54.1599 60.599 54.5737 59.5109 55.1195 58.1523H56.7027C57.2065 59.3847 57.6743 60.629 58.0641 61.8914H56.6967ZM55.8871 59.2404C55.7971 59.4869 55.6172 60.0099 55.5393 60.2563H56.223C56.151 59.9978 55.9771 59.4869 55.8871 59.2404Z" fill="#17984F"/>
<path d="M58.3633 61.8914V58.1523H59.7187V60.8875H60.8281V61.8914H58.3633Z" fill="#17984F"/>
<path d="M61.2422 61.8914V58.1523H62.6036V60.8875H63.7071V61.8914H61.2422Z" fill="#17984F"/>
<path d="M64.9025 57.4805C64.7586 58.0155 64.4827 58.7008 64.3148 58.9953L63.9609 59.0314C64.0929 58.6587 64.2668 58.0035 64.3388 57.5466L64.9085 57.4805H64.9025Z" fill="#17984F"/>
<path d="M67.9251 61.8914C67.8651 61.645 67.8112 61.4526 67.7632 61.2723H66.4558C66.4018 61.4285 66.3418 61.645 66.2699 61.8914H64.9805C65.3943 60.599 65.8081 59.5109 66.3538 58.1523H67.9371C68.4409 59.3847 68.9087 60.629 69.2925 61.8914H67.9251ZM67.1155 59.2404C67.0255 59.4869 66.8456 60.0099 66.7676 60.2563H67.4513C67.3734 59.9978 67.2054 59.4869 67.1155 59.2404Z" fill="#17984F"/>
<path d="M73.741 61.8914C73.741 61.0378 73.717 60.1181 73.6691 59.3186L72.9254 61.8914H71.57L70.8144 59.3186C70.7724 60.1601 70.7424 61.0619 70.7424 61.8914H69.543C69.549 60.611 69.6209 59.3847 69.7529 58.1523H71.678L72.3137 60.2864L72.9434 58.1523H74.9165C75.0304 59.3366 75.1084 60.7613 75.1084 61.8914H73.741Z" fill="#17984F"/>
<path d="M77.2978 61.8914H75.7266V58.1523H77.5557C78.2094 58.1523 78.9591 58.3748 78.9591 59.1082C78.9591 59.4087 78.8511 59.6792 78.5393 59.7995C78.9711 59.9257 79.163 60.2623 79.163 60.6711C79.163 61.4887 78.5932 61.8854 77.2978 61.8854M77.2918 59.0541H76.986V59.5831H77.3398C77.5018 59.5831 77.6037 59.4328 77.6037 59.3005C77.6037 59.1683 77.5257 59.0541 77.2918 59.0541ZM77.3998 60.4126H76.992V60.9897H77.3338C77.6277 60.9897 77.7416 60.8755 77.7416 60.6891C77.7416 60.5268 77.6277 60.4186 77.4058 60.4186" fill="#17984F"/>
<path d="M81.0176 58.1523H79.6562V61.8914H81.0176V58.1523Z" fill="#17984F"/>
<path d="M81.6641 61.8914V58.1523H84.2549V59.1262H83.0134V59.541H84.021V60.4487H83.0134V60.9116H84.2729V61.8914H81.6641Z" fill="#17984F"/>
<path d="M87.1167 61.8914L86.0072 59.9257V61.8914H84.8438V58.1523H86.439L87.6085 60.2082V58.1523H88.7719V61.8914H87.1167Z" fill="#17984F"/>
<path d="M91.3392 59.2061V61.8932H89.9599V59.2061H89.1562V58.1602H92.1549V59.2061H91.3392Z" fill="#17984F"/>
<path d="M92.5391 61.8914V58.1523H95.1239V59.1262H93.8824V59.541H94.896V60.4487H93.8824V60.9116H95.1419V61.8914H92.5391Z" fill="#17984F"/>
<path d="M97.3164 61.8914V58.1523H99.9012V59.1262H98.6598V59.541H99.6673V60.4487H98.6598V60.9116H99.9192V61.8914H97.3164Z" fill="#17984F"/>
<path d="M104.695 61.8914C104.629 61.645 104.581 61.4526 104.533 61.2723H103.225C103.171 61.4285 103.111 61.645 103.039 61.8914H101.75C102.164 60.599 102.572 59.5109 103.117 58.1523H104.701C105.204 59.3847 105.678 60.629 106.062 61.8914H104.695ZM103.891 59.2404C103.801 59.4869 103.621 60.0099 103.543 60.2563H104.227C104.155 59.9978 103.981 59.4869 103.891 59.2404Z" fill="#17984F"/>
<path d="M106.359 61.8914V58.1523H107.721V60.8875H108.824V61.8914H106.359Z" fill="#17984F"/>
<path d="M109.238 61.8914V58.1523H110.594V60.8875H111.703V61.8914H109.238Z" fill="#17984F"/>
<path d="M114.714 61.8914C114.654 61.645 114.6 61.4526 114.552 61.2723H113.245C113.191 61.4285 113.125 61.645 113.059 61.8914H111.77C112.183 60.599 112.591 59.5109 113.143 58.1523H114.726C115.23 59.3847 115.698 60.629 116.088 61.8914H114.72H114.714ZM113.911 59.2404C113.821 59.4869 113.641 60.0099 113.563 60.2563H114.246C114.168 59.9978 114.001 59.4869 113.911 59.2404Z" fill="#17984F"/>
<path d="M119.087 61.9816C118.703 61.9816 118.307 61.9335 117.863 61.8434L117.989 60.7914C118.337 60.8815 118.727 60.9537 119.015 60.9537C119.369 60.9537 119.447 60.8815 119.447 60.7853C119.447 60.6531 119.375 60.587 118.985 60.4848C118.241 60.2804 117.863 59.9498 117.863 59.2705C117.863 58.3868 118.673 58.0742 119.447 58.0742C119.878 58.0742 120.334 58.1283 120.73 58.2666L120.484 59.2645C120.13 59.1322 119.77 59.0721 119.513 59.0721C119.357 59.0721 119.297 59.1382 119.297 59.2224C119.297 59.3066 119.363 59.3546 119.698 59.4448C120.346 59.6131 120.868 59.8656 120.868 60.6651C120.868 61.7532 119.836 61.9936 119.093 61.9936" fill="#17984F"/>
<path d="M123.303 61.9821C122.05 61.9821 121.234 61.4771 121.234 60.0224C121.234 58.778 122.032 58.0566 123.333 58.0566C124.767 58.0566 125.402 58.772 125.402 59.9863C125.402 61.2006 124.581 61.9821 123.297 61.9821M123.333 59.0545C122.806 59.0545 122.596 59.4633 122.596 59.9683C122.596 60.7137 122.89 60.9722 123.327 60.9722C123.765 60.9722 124.047 60.5754 124.047 60.0224C124.047 59.4693 123.819 59.0545 123.333 59.0545Z" fill="#17984F"/>
<path d="M127.02 61.9816C126.636 61.9816 126.241 61.9335 125.797 61.8434L125.923 60.7914C126.271 60.8815 126.66 60.9537 126.942 60.9537C127.29 60.9537 127.374 60.8815 127.374 60.7853C127.374 60.6531 127.302 60.587 126.918 60.4848C126.175 60.2804 125.797 59.9498 125.797 59.2705C125.797 58.3868 126.607 58.0742 127.38 58.0742C127.812 58.0742 128.268 58.1283 128.67 58.2666L128.424 59.2645C128.07 59.1322 127.71 59.0721 127.452 59.0721C127.29 59.0721 127.236 59.1382 127.236 59.2224C127.236 59.3066 127.296 59.3546 127.632 59.4448C128.28 59.6131 128.801 59.8656 128.801 60.6651C128.801 61.7532 127.77 61.9936 127.02 61.9936" fill="#17984F"/>
<path d="M131.226 59.2061V61.8932H129.853V59.2061H129.043V58.1602H132.042V59.2061H131.226Z" fill="#17984F"/>
<path d="M132.426 61.8914V58.1523H135.011V59.1262H133.775V59.541H134.783V60.4487H133.775V60.9116H135.029V61.8914H132.426Z" fill="#17984F"/>
<path d="M137.872 61.8914L136.769 59.9257V61.8914H135.605V58.1523H137.195L138.37 60.2082V58.1523H139.534V61.8914H137.872Z" fill="#17984F"/>
<path d="M141.535 58.1523H140.18V61.8914H141.535V58.1523Z" fill="#17984F"/>
<path d="M143.765 61.8914H142.188V58.1523H144.023C144.67 58.1523 145.426 58.3748 145.426 59.1082C145.426 59.4087 145.318 59.6792 145.006 59.7995C145.438 59.9257 145.63 60.2623 145.63 60.6711C145.63 61.4887 145.066 61.8854 143.771 61.8854M143.759 59.0541H143.453V59.5831H143.807C143.969 59.5831 144.065 59.4328 144.065 59.3005C144.065 59.1683 143.987 59.0541 143.753 59.0541M143.861 60.4126H143.447V60.9897H143.795C144.083 60.9897 144.203 60.8755 144.203 60.6891C144.203 60.5268 144.089 60.4186 143.861 60.4186" fill="#17984F"/>
<path d="M147.482 58.1523H146.121V61.8914H147.482V58.1523Z" fill="#17984F"/>
<path d="M148.133 61.8914V58.1523H149.488V60.8875H150.598V61.8914H148.133Z" fill="#17984F"/>
<path d="M152.373 58.1523H151.012V61.8914H152.373V58.1523Z" fill="#17984F"/>
<path d="M154.939 59.2061V61.8932H153.56V59.2061H152.75V58.1602H155.749V59.2061H154.939Z" fill="#17984F"/>
<path d="M158.728 61.8929C158.668 61.6465 158.614 61.4541 158.566 61.2738H157.258C157.21 61.4301 157.144 61.6465 157.078 61.8929H155.789C156.203 60.6005 156.611 59.5124 157.156 58.1539H158.74C159.243 59.3862 159.711 60.6306 160.101 61.8929H158.734H158.728ZM158.224 57.8653L156.935 57.174L157.618 56.5488L158.698 57.4325L158.218 57.8713L158.224 57.8653ZM157.924 59.2419C157.834 59.4884 157.654 60.0114 157.576 60.2579H158.26C158.188 59.9994 158.014 59.4884 157.924 59.2419Z" fill="#17984F"/>
<path d="M26.3159 50.9102L7.5625 32.1126L34.73 4.875L37.5187 7.66428L23.773 21.4484L39.7377 37.4507L26.3099 50.9102H26.3159ZM13.1399 32.1066L26.3159 45.3076L34.1602 37.4447L20.9843 24.2437L13.1399 32.1066Z" fill="#6EBC4B"/>
<path d="M18.4655 26.7742L15.6768 29.5634L26.3159 40.2336L31.6354 34.9076L28.8467 32.1063L26.3219 34.637L18.4715 26.7681L18.4655 26.7742ZM43.474 17.4445L31.6294 29.317L34.4181 32.1123L43.474 23.0351L47.3662 26.9365L50.1609 24.1412L43.474 17.4385M2.78872 11.0664L0 13.8617L12.8821 26.7742L15.6708 23.9789L2.78872 11.0664Z" fill="#AED053"/>
<path d="M31.6302 29.3226L28.8415 32.1179L31.6302 34.9192L34.4189 32.1179L31.6302 29.3226ZM15.6715 23.9785L12.8828 26.7738L15.6715 29.5631L18.4602 26.7738L15.6715 23.9785Z" fill="#41B550"/>
<path d="M42.8916 7.36347L26.3152 23.9789L23.7844 21.4421H23.7784L29.104 26.7802L45.6863 10.1588L42.8976 7.36347H42.8916ZM14.1828 6.75031L8.86328 12.0824L18.201 21.4421L20.9957 18.6408L14.4527 12.0824L16.9835 9.5456L14.1948 6.75031M20.8218 0.0957031L16.9775 3.95501L19.7663 6.75632L23.6165 2.89701L20.8218 0.0957031Z" fill="#52C2E1"/>
<path d="M20.9978 18.6406L18.2031 21.4419L26.3174 29.5693L29.1001 26.78L23.7806 21.4479L23.7866 21.4419L20.9978 18.6406Z" fill="#06AE51"/>
<path d="M19.7673 6.75033L16.9786 9.54562L23.5216 16.104L32.7034 6.90061L26.3103 13.3087L19.7613 6.75033M13.0504 0.0175781L10.2617 2.81287L14.1899 6.75634L16.9786 3.95503L13.0504 0.0175781Z" fill="#1D99D6"/>
<path d="M32.7013 6.90625L23.5195 16.1097L26.3142 18.905L35.496 9.70154L32.7013 6.90625Z" fill="#17984F"/>
<path d="M16.9783 3.94922L14.1836 6.75052L16.9783 9.54582L19.767 6.75052L16.9783 3.94922Z" fill="#0795D1"/>
<path d="M28.2587 46.4375H24.3125V61.8747H28.2587V46.4375Z" fill="#6EBC4B"/>
<path d="M48.7651 57.9316H28.2605V61.8811H24.3143V57.9316H11.6602V61.8871H48.7651V57.9316Z" fill="#17984F"/>
<path d="M28.2587 57.9316H24.3125V61.8811H28.2587V57.9316Z" fill="#17984F"/>
<path d="M54.2109 22.4941H62.5651V47.3332H54.2109V22.4941Z" fill="#6EBC4B"/>
<path d="M91.0283 22.4941V47.3332H84.1615L74.7458 36.0558V47.3332H66.6016V22.4941H73.4684L82.8841 33.7835V22.4941H91.0283Z" fill="#6EBC4B"/>
<path d="M103.417 28.8061V33.0682H113.756V39.3861H103.417V47.3332H95.0625V22.4941H115.201V28.8061H103.411H103.417Z" fill="#6EBC4B"/>
<path d="M138.466 41.0094V47.3273H117.859V22.4883H138.004V28.8002H126.076V31.7097H136.553V37.7452H126.076V41.0033H138.466V41.0094Z" fill="#6EBC4B"/>
<path d="M158.575 42.9991H149.159L147.498 47.3273H139L149.831 22.4883H158.041L168.872 47.3273H160.236L158.569 42.9991H158.575ZM156.272 36.9697L153.861 30.7239L151.45 36.9697H156.266H156.272Z" fill="#6EBC4B"/>
<path d="M168.67 45.35L171.357 39.2425C173.696 40.6251 176.808 41.5148 179.531 41.5148C181.9 41.5148 182.752 41.0098 182.752 40.1622C182.752 37.0423 169.054 39.5611 169.054 30.2975C169.054 25.6868 172.91 21.9297 180.593 21.9297C183.921 21.9297 187.357 22.639 189.936 24.0878L187.423 30.1593C184.983 28.9149 182.68 28.3138 180.521 28.3138C178.08 28.3138 177.3 29.0231 177.3 29.8707C177.3 32.8524 190.998 30.3697 190.998 39.525C190.998 44.0696 187.136 47.8989 179.459 47.8989C175.315 47.8989 171.141 46.8709 168.664 45.344L168.67 45.35Z" fill="#6EBC4B"/>
</g>
<defs>
<clipPath id="clip0_552_11029">
<rect width="191" height="62" fill="white"/>
</clipPath>
</defs>
</svg>
