<?xml version="1.0" encoding="UTF-8" standalone="no"?><svg width="33" height="32" viewBox="0 0 33 32" fill="none" xmlns="http://www.w3.org/2000/svg">
<g clip-path="url(#clip0_157_6182)">
<path d="M32.292 12.6186C32.3637 10.5448 31.9102 8.48659 30.9736 6.63498C30.3382 5.87521 29.4563 5.36249 28.4816 5.18616C24.4504 4.81937 20.4024 4.66944 16.355 4.73702C12.3225 4.66892 8.28913 4.814 4.27188 5.17167C3.47767 5.31614 2.74268 5.68867 2.15661 6.2438C0.85267 7.44632 0.707788 9.50364 0.562906 11.2422C0.351427 14.3681 0.351427 17.5047 0.562906 20.6306C0.605362 21.6091 0.751052 22.5803 0.997552 23.5282C1.17224 24.26 1.52568 24.937 2.02621 25.4986C2.61627 26.0831 3.36838 26.4769 4.18495 26.6287C7.30841 27.0151 10.4557 27.1749 13.6023 27.1068C18.6731 27.1792 23.121 27.1068 28.3802 26.7011C29.2163 26.5569 29.9891 26.1629 30.5969 25.571C31.0021 25.1649 31.305 24.6683 31.4807 24.1222C31.9983 22.5322 32.2528 20.8683 32.2341 19.1962C32.292 18.3849 32.292 13.4879 32.292 12.6186ZM13.0807 20.0655V11.0973L21.6577 15.6032C19.2527 16.9361 16.0798 18.4429 13.0807 20.0655Z" fill="#65C430"/>
</g>
<defs>
<clipPath id="clip0_157_6182">
<rect width="31.874" height="31.874" fill="white" transform="translate(0.417969)"/>
</clipPath>
</defs>
</svg>
